<?xml version="1.0" standalone="no"?>
<!DOCTYPE svg PUBLIC "-//W3C//DTD SVG 20010904//EN"
 "http://www.w3.org/TR/2001/REC-SVG-20010904/DTD/svg10.dtd">
<svg version="1.0" xmlns="http://www.w3.org/2000/svg"
 width="341.000000pt" height="374.000000pt" viewBox="0 0 341.000000 374.000000"
 preserveAspectRatio="xMidYMid meet">

<g transform="translate(0.000000,374.000000) scale(0.100000,-0.100000)"
fill="#000000" stroke="none">
<path d="M0 2624 l0 -1115 34 35 c18 20 48 42 66 50 l33 13 2 184 c6 412 111
733 230 703 36 -9 107 -92 151 -178 l38 -74 46 23 c105 53 185 70 330 69 132
-1 149 -4 305 -49 16 -5 26 5 53 49 18 30 37 58 42 61 5 3 -9 -26 -31 -64
l-40 -69 -48 19 c-85 32 -227 52 -323 45 -107 -8 -226 -38 -286 -71 -24 -14
-46 -25 -47 -25 -2 0 -22 35 -46 78 -89 163 -151 208 -213 153 -80 -71 -147
-377 -150 -683 l-1 -177 -54 -28 c-30 -15 -56 -34 -59 -41 -3 -11 2 -10 25 2
16 8 43 16 59 18 26 3 29 0 32 -27 1 -16 7 -50 13 -74 10 -43 9 -45 -28 -84
l-38 -39 42 25 c33 21 42 23 47 12 3 -8 0 -12 -7 -9 -7 2 -28 -7 -46 -20 -30
-22 -51 -26 -51 -9 0 3 19 22 41 43 40 36 41 39 30 70 -6 18 -11 48 -11 66 0
38 -13 42 -69 23 -20 -7 -33 -20 -37 -36 -4 -15 -12 -22 -20 -19 -12 5 -14
-110 -14 -734 l0 -740 323 0 322 1 -47 18 c-59 23 -163 97 -210 148 -66 74
-108 192 -108 304 0 137 75 346 172 477 36 48 39 56 24 64 -52 29 -147 111
-189 163 -45 56 -103 153 -95 160 2 2 16 -21 32 -50 35 -67 125 -166 203 -225
32 -24 62 -47 67 -51 4 -4 -13 -36 -38 -72 -178 -249 -211 -565 -78 -741 99
-130 291 -200 484 -176 46 6 132 15 191 20 112 9 248 46 287 78 38 31 109 159
126 227 7 28 13 41 13 29 2 -34 -25 -110 -50 -146 -13 -18 -34 -51 -45 -73
-18 -34 -33 -45 -99 -73 -74 -33 -219 -64 -254 -55 -9 2 -52 -3 -96 -11 -72
-13 49 -14 1198 -15 l1277 -1 0 1518 -1 1517 -22 -66 c-51 -150 -163 -247
-372 -321 -86 -31 -268 -71 -292 -65 -13 3 -12 5 6 6 51 2 278 64 345 94 144
63 246 149 289 245 29 65 35 199 13 275 -34 116 -141 243 -279 331 -237 152
-658 231 -956 182 -57 -10 -105 -15 -108 -13 -2 3 29 10 69 17 40 7 78 14 83
15 6 2 -484 4 -1087 4 l-1098 1 0 -1116z m1930 1042 c-253 -88 -439 -235 -530
-418 -22 -46 -38 -69 -34 -53 11 49 53 120 116 195 101 119 257 222 418 277
52 18 102 32 110 32 8 0 -28 -15 -80 -33z m635 -30 c256 -40 459 -124 588
-246 119 -111 162 -196 161 -315 -1 -88 -32 -153 -102 -217 -156 -140 -487
-222 -868 -217 l-151 3 -49 -55 c-26 -30 -64 -67 -83 -83 -36 -28 -128 -78
-168 -90 -22 -7 -22 -6 6 56 20 43 31 87 36 139 l6 76 -68 18 c-151 39 -257
78 -279 101 -14 13 -30 21 -38 18 -19 -7 -101 88 -122 142 -15 39 -16 55 -6
116 16 108 60 186 161 288 141 142 335 236 556 270 85 13 325 10 420 -4z
m-1211 -520 c-3 -21 -9 -35 -11 -32 -3 3 -2 21 1 42 4 20 10 34 12 31 3 -3 2
-21 -2 -41z m-11 -116 c4 -30 3 -38 -3 -25 -8 19 -14 83 -6 74 2 -2 6 -24 9
-49z m126 -210 c75 -74 182 -133 314 -171 75 -22 78 -23 72 -48 -10 -41 -52
-119 -85 -159 -57 -69 -32 -101 70 -89 113 14 306 126 352 206 l21 36 146 0
c80 0 191 3 246 6 69 5 86 4 55 -2 -25 -5 -135 -11 -244 -14 l-199 -5 -18 -30
c-24 -38 -119 -114 -193 -151 -32 -17 -94 -40 -137 -50 -68 -18 -82 -18 -106
-7 -40 19 -41 55 -2 104 31 39 71 111 83 150 6 20 -1 24 -81 49 -165 51 -286
127 -356 223 -21 27 -37 54 -36 58 0 5 7 -2 16 -16 9 -14 46 -54 82 -90z m77
-319 c38 -23 81 -107 89 -171 5 -42 4 -41 -10 13 -28 109 -67 157 -137 164
-43 4 -54 0 -125 -53 -13 -9 -23 -12 -23 -6 0 5 8 12 18 16 9 3 32 17 51 31
41 30 93 33 137 6z m-1166 -105 c25 -35 110 -177 110 -184 0 -4 10 -19 23 -34
l22 -28 55 36 c30 20 83 50 118 66 l64 31 146 -6 c158 -6 224 -20 331 -68 62
-28 66 -29 79 -12 7 10 16 29 19 43 3 14 21 55 39 92 51 103 100 124 137 61
34 -59 48 -182 52 -460 4 -253 3 -262 -16 -268 -26 -8 -25 -25 2 -18 19 5 20
3 13 -33 -13 -72 -20 -82 -63 -89 -53 -9 -63 -25 -12 -18 63 9 63 2 -10 -153
-26 -55 -60 -104 -105 -153 l-66 -72 12 -82 c7 -45 23 -134 36 -197 47 -232
52 -356 19 -471 -19 -66 -61 -144 -89 -167 -29 -23 -85 -47 -92 -40 -2 3 1 28
7 56 6 28 9 62 7 74 -2 18 -10 9 -35 -42 -40 -81 -76 -118 -97 -101 -19 16
-47 99 -49 146 -1 19 -5 35 -9 35 -12 0 -14 -106 -4 -171 l6 -36 -53 -7 c-98
-11 -187 -8 -187 8 0 8 4 17 9 20 11 7 35 138 29 157 -3 8 -17 -8 -36 -41 -44
-75 -67 -104 -80 -96 -12 7 -82 171 -82 192 0 8 -5 14 -10 14 -15 0 5 -158 25
-213 9 -23 -11 -22 -69 3 -65 28 -134 95 -167 163 -64 136 -46 267 79 572 27
66 51 137 55 157 5 36 4 38 -63 87 -38 28 -86 71 -107 95 -42 48 -113 163
-113 184 0 13 98 62 125 62 23 0 18 27 -7 33 -12 3 -47 -2 -77 -13 -64 -21
-71 -17 -71 43 0 34 2 37 28 37 15 0 33 -5 40 -12 8 -8 12 -9 12 -1 0 14 -48
53 -65 53 -13 0 -25 104 -25 227 0 136 56 427 101 525 23 49 32 51 59 14z
m1267 -163 c-3 -10 -5 -2 -5 17 0 19 2 27 5 18 2 -10 2 -26 0 -35z m10 -105
c-2 -18 -4 -6 -4 27 0 33 2 48 4 33 2 -15 2 -42 0 -60z m10 -158 c-8 -148 2
-288 20 -294 7 -2 5 -3 -4 -2 -15 1 -19 15 -25 76 -7 76 1 330 10 330 3 0 2
-50 -1 -110z m93 -315 c33 -17 43 -53 13 -40 -10 4 -37 13 -61 21 -48 15 -47
16 -56 -57 -5 -44 -4 -46 28 -57 18 -7 41 -21 51 -32 16 -17 16 -20 2 -26 -8
-3 -24 -1 -36 5 -11 6 -31 11 -45 11 -20 0 -26 -6 -31 -32 -10 -46 -67 -168
-104 -222 -18 -25 -56 -72 -87 -105 l-55 -59 17 -35 16 -34 36 39 c56 62 122
91 197 86 75 -5 120 -33 147 -94 17 -39 17 -47 4 -77 -8 -19 -20 -38 -27 -43
-9 -5 -8 1 4 19 55 84 -22 187 -140 187 -64 0 -143 -39 -185 -91 -17 -21 -35
-39 -39 -39 -4 0 -15 21 -25 46 l-17 46 31 25 c71 55 173 214 207 323 10 30
22 60 27 66 8 12 62 5 87 -10 6 -4 11 -3 11 3 0 5 -20 19 -45 31 l-45 22 6 56
c4 32 10 60 13 64 4 5 30 2 59 -6 59 -15 67 -12 20 9 -18 8 -27 14 -20 15 7 0
26 -7 42 -15z m-61 -649 c13 -14 20 -29 16 -35 -3 -6 -39 -33 -78 -60 -72 -49
-135 -108 -155 -146 -12 -23 -13 -22 -36 70 l-15 60 52 49 c71 67 105 86 153
86 30 0 46 -6 63 -24z m7 -139 c-107 -67 -141 -96 -177 -145 l-41 -57 5 -75
c3 -41 2 -95 -2 -120 -6 -34 -8 -16 -9 75 l-1 120 34 51 c36 56 97 110 160
142 44 23 61 28 31 9z"/>
<path d="M1927 3292 c-27 -29 -39 -73 -45 -166 l-7 -90 -45 84 c-65 121 -95
160 -125 160 -41 0 -57 -39 -63 -149 -4 -96 16 -211 37 -211 5 0 9 66 10 148
1 81 6 151 10 155 12 12 58 -58 114 -169 73 -145 101 -138 110 23 7 119 17
165 35 171 18 6 49 -76 71 -185 21 -99 31 -121 51 -108 16 10 5 96 -27 205
-37 128 -85 178 -126 132z"/>
<path d="M2229 3217 c-18 -12 -47 -47 -64 -77 -27 -49 -30 -61 -24 -102 15
-97 59 -148 127 -148 33 0 50 12 80 56 l22 32 -37 -19 c-72 -37 -126 -19 -139
48 -6 29 -4 30 36 37 84 13 141 82 119 144 -9 28 -44 52 -73 52 -7 0 -28 -10
-47 -23z m79 -50 c5 -24 -24 -56 -66 -74 -44 -18 -56 -9 -36 30 31 61 94 88
102 44z"/>
<path d="M2674 3216 c-8 -21 30 -164 59 -226 38 -78 82 -62 108 41 7 27 16 49
20 49 5 0 16 -25 25 -55 27 -86 63 -115 97 -77 33 36 83 207 72 243 -13 41
-33 18 -54 -65 -25 -101 -38 -136 -49 -136 -5 0 -19 36 -32 80 -37 131 -68
133 -111 5 -31 -89 -30 -89 -74 45 -30 95 -50 125 -61 96z"/>
<path d="M2489 3153 c-50 -31 -82 -120 -59 -162 26 -50 109 -46 150 6 30 38
28 116 -5 148 -28 29 -50 31 -86 8z m65 -49 c18 -47 -16 -104 -62 -104 -23 0
-24 3 -19 41 8 63 64 107 81 63z"/>
<path d="M1211 1759 c-31 -33 -37 -101 -14 -141 40 -69 94 -36 101 61 4 54 2
59 -23 79 -34 27 -39 27 -64 1z"/>
<path d="M684 1736 c-8 -14 -16 -44 -17 -68 -3 -85 59 -130 98 -72 20 32 24
109 6 142 -17 31 -65 30 -87 -2z"/>
<path d="M961 1529 c-19 -11 -49 -21 -68 -22 -26 -2 -30 -4 -19 -12 8 -6 17
-27 21 -46 4 -20 17 -49 30 -65 47 -59 148 -24 174 60 15 51 11 66 -19 66 -15
0 -39 9 -53 20 -31 24 -25 24 -66 -1z m64 -9 c10 -11 28 -20 40 -20 30 0 34
-7 24 -42 -10 -37 -45 -77 -76 -89 -46 -18 -96 22 -108 87 -5 26 -2 31 42 56
59 33 56 32 78 8z"/>
<path d="M2515 3733 c475 -60 802 -267 880 -556 13 -48 14 -28 14 256 l1 307
-462 -1 c-255 -1 -449 -4 -433 -6z"/>
</g>
</svg>
